<?xml version="1.0" ?><svg enable-background="new 0 0 207.8763 223.9932" id="airbnb" version="1.1" viewBox="0 0 207.8763 223.9932" xml:space="preserve" xmlns="http://www.w3.org/2000/svg" xmlns:xlink="http://www.w3.org/1999/xlink"><g><path d="M115.8033,105.7432c-3.59-2.7912-7.4043-4.1896-11.4064-4.1896c-2.9572,0-6.0156,0.7636-9.164,2.2911   c-6.3028,3.0565-9.008,8.3749-8.5136,16.7345c0.8748,14.7108,8.6248,26.6872,17.3748,39.0116   c7.3104-9.9768,14.1076-20.7656,16.6856-33.1564C122.8889,116.282,121.4009,110.0948,115.8033,105.7432z" fill="none"/><path d="M125.311,49.046l-6.4905-13.2268c-3.1132-6.3536-8.3864-10.0292-14.4684-10.088c-0.0472,0-0.094,0-0.1428,0   c-6.1228,0-11.7284,3.7988-15.0136,10.1895c-1.5487,3.0117-3.1444,6.0021-4.7384,8.9905   c-2.5684,4.8144-5.2244,9.7908-7.5976,14.7304C59.5298,95.7352,43.559,129.2508,28.0374,162.0984   c-3.3336,7.0548-3.4648,14.1524-0.3884,21.098c2.918,6.5896,8.078,11.492,14.5312,13.8003   c6.4572,2.3165,13.6388,1.7661,20.2207-1.5467c5.7732-2.906,11.0116-7.2068,16.5584-11.7576   c2.3597-1.9376,4.7208-3.8712,7.1308-5.7112c-0.0096-0.0156-0.0212-0.0312-0.0311-0.0468   c-6.8517-10.6328-13.832-21.4688-19.4005-32.9764c-6.158-12.7188-7.4823-26.164-3.832-38.8808   c6.2676-21.8128,29.34-34.3652,52.5216-28.5744c22.002,5.4884,35.414,27.2128,31.1992,50.5332   c-3.2012,17.7344-11.8476,32.1604-19.0216,42.746c-0.746,1.0976-1.6328,2.2464-2.5372,3.4024   c-0.9844,1.2656-2.5544,3.2812-3.068,4.3908c0.7792,1.1716,3.3416,3.1992,4.7832,4.336c0.9336,0.738,1.8496,1.4648,2.6836,2.1796   c8.9744,7.6836,17.076,12.8672,27.326,13.1328c0.8612-0.1096,1.7284-0.1952,2.5977-0.2812   c1.8611-0.1796,3.6191-0.3556,5.088-0.7657c7.2791-2.0351,13.1735-6.9531,16.1755-13.4963   c3.0236-6.5856,2.8808-14.074-0.4004-21.0856C162.3577,124.544,143.5237,86.1647,125.311,49.046z" fill="none"/><path d="M155.5161,68.958c-6.5764-13.5508-14.3204-29.25-22.998-44.0764c-4.8144-8.2324-12.25-13.916-20.9356-16.0036   c-8.498-2.0472-17.3928-0.4708-25.0508,4.4352c-7.594,4.8635-12.1367,12.594-15.578,19.5176L61.807,51.1687   c-10.3084,20.6505-20.9688,42.0061-31.1524,63.1409l-0.2148,0.4412c-7.0976,14.7268-14.4372,29.9492-20.0056,45.4179   c-7.2872,20.2461,2.3376,42.4337,22.3884,51.6097c15.7384,7.1992,31.5175,5.0896,48.2463-6.43   c4.7536-3.2732,9.0956-7.0856,14.1248-11.496c2.418-2.1248,4.9436-4.336,7.664-6.6212l3.3476-2.8124l2.504,3.5819   c0.4004,0.5745,0.7812,1.2033,1.166,1.844c0.584,0.9685,1.1877,1.9765,1.7696,2.4609c1.6776,1.3984,3.332,2.832,4.9904,4.2656   c5.0292,4.3516,9.7792,8.4648,15.0896,11.6212c17.3732,10.324,34.0236,10.4372,49.4788,0.3396   c18.484-12.078,23.8456-34.246,13.658-56.4804C183.727,127.7468,171.2249,101.3428,155.5161,68.958z M107.2133,168.786   l-3.2812,4.332l-3.8731-5.414c-10.4045-14.5353-20.2325-28.2656-21.324-46.6484c-0.8637-14.5429,6.5975-21.3008,13.0055-24.41   c10.2305-4.9652,20.252-4.002,28.9728,2.7812c10.6876,8.3064,9.6268,20.324,7.8984,28.6364   C125.315,143.9112,116.2329,156.872,107.2133,168.786z M191.4809,188.6844c-4.4748,9.754-13.1659,17.0624-23.8476,20.0468   c-2.4804,0.6956-4.9592,0.9415-7.1463,1.1564c-0.8829,0.086-1.764,0.172-2.6369,0.2891l-0.4416,0.0585l-0.4432-0.004   c-14.8788-0.1952-25.8008-7.82-35.3848-16.0272c-0.7208-0.6172-1.5116-1.242-2.3164-1.8748   c-3.9748-3.1408-8.4804-6.7032-9.3456-12.0548l-0.002-0.0116c-0.8284-5.1956,2.5916-9.5824,5.6092-13.4532   c0.7324-0.9416,1.4613-1.8672,2.0664-2.762c9.672-14.2692,14.9612-26.0349,17.1464-38.1444   c3.0765-17.0176-6.5096-32.8185-22.2948-36.756c-16.8904-4.2204-33.6112,4.678-38.082,20.2424   c-2.8632,9.9708-1.8224,20.1776,3.0976,30.3416c5.25,10.8516,12.0312,21.3752,18.588,31.5508   c4.1368,6.418,3.4336,11.6564-1.994,15.7227c-2.5352,1.9025-5.008,3.9337-7.4828,5.9649   c-5.8064,4.7656-11.8124,9.6951-18.7732,13.1991c-5.6056,2.8205-11.5547,4.2461-17.4491,4.2461   c-4.1428,0-8.258-0.7028-12.2128-2.1208c-9.5764-3.43-17.1976-10.6173-21.4592-20.2384   c-4.4884-10.1328-4.3104-20.8829,0.5116-31.082C32.721,124.0984,48.7018,90.5632,66.0433,54.448   c2.4824-5.1696,5.1992-10.2616,7.8264-15.1852c1.5664-2.9356,3.1328-5.8712,4.654-8.8304   c5.3868-10.4744,14.9708-16.7012,25.678-16.7012c0.0896,0,0.1776,0,0.2656,0c10.6268,0.1036,20.0212,6.3848,25.1268,16.8048   l6.4884,13.2247c18.238,37.1661,37.0956,75.5957,54.9588,113.748C195.8441,167.7664,196.0005,178.8367,191.4809,188.6844z" fill="none"/><path d="M202.1353,148.7196c-11.1603-24.3592-23.6856-50.8144-39.422-83.254   c-6.6428-13.6872-14.4688-29.5508-23.2892-44.6228c-5.9256-10.1292-15.1484-17.1408-25.9704-19.7444   C102.8205-1.46,91.7329,0.4852,82.2193,6.5752c-9.2384,5.916-14.5,14.7908-18.428,22.6912L54.651,47.5948   c-10.3224,20.6756-20.9944,42.0564-31.2032,63.24l-0.2128,0.4416c-7.1876,14.908-14.6192,30.326-20.3284,46.1816   c-8.7068,24.1952,2.7228,50.6756,26.588,61.5936c18.256,8.3556,37.1327,5.9611,56.1111-7.1172   c5.1408-3.5352,9.8636-7.6796,14.8636-12.0704c1.32-1.156,2.6716-2.3436,4.07-3.5544c0.5568,0.75,1.2052,1.492,1.9864,2.1444   c1.6368,1.3632,3.254,2.7616,4.8733,4.164c5.072,4.3907,10.3183,8.9336,16.24,12.4492c10.0139,5.9492,20.0487,8.926,29.84,8.926   c9.6991,0,19.1563-2.922,28.0995-8.7656C207.2289,201.0828,213.8833,174.3564,202.1353,148.7196z M181.2037,208.532   c-15.4552,10.0976-32.1056,9.9844-49.4788-0.3396c-5.3104-3.1564-10.0604-7.2696-15.0896-11.6212   c-1.6584-1.4336-3.3128-2.8672-4.9904-4.2656c-0.5819-0.4844-1.1856-1.4924-1.7696-2.4609   c-0.3848-0.6407-0.7656-1.2695-1.166-1.844l-2.504-3.5819l-3.3476,2.8124c-2.7204,2.2852-5.246,4.4964-7.664,6.6212   c-5.0292,4.4104-9.3712,8.2228-14.1248,11.496c-16.7288,11.5196-32.5079,13.6292-48.2463,6.43   c-20.0508-9.176-29.6756-31.3636-22.3884-51.6097c5.5684-15.4687,12.908-30.6911,20.0056-45.4179l0.2148-0.4412   c10.1836-21.1348,20.844-42.4904,31.1524-63.1409l9.1467-18.3379c3.4413-6.9236,7.984-14.6541,15.578-19.5176   c7.658-4.906,16.5528-6.4824,25.0508-4.4352c8.6856,2.0876,16.1212,7.7712,20.9356,16.0036   c8.6776,14.8264,16.4216,30.5256,22.998,44.0764c15.7088,32.3848,28.2109,58.7888,39.3456,83.0936   C205.0493,174.286,199.6877,196.454,181.2037,208.532z" fill="#FE7D71"/><path d="M120.7133,99.4268c-8.7208-6.7832-18.7423-7.7464-28.9728-2.7812   c-6.408,3.1092-13.8692,9.8671-13.0055,24.41c1.0915,18.3828,10.9195,32.1131,21.324,46.6484l3.8731,5.414l3.2812-4.332   c9.0196-11.914,18.1017-24.8748,21.3984-40.7228C130.3401,119.7508,131.4009,107.7332,120.7133,99.4268z M120.7797,126.4344   c-2.578,12.3908-9.3752,23.1796-16.6856,33.1564c-8.75-12.3244-16.5-24.3008-17.3748-39.0116   c-0.4944-8.3596,2.2108-13.678,8.5136-16.7345c3.1484-1.5275,6.2068-2.2911,9.164-2.2911c4.0021,0,7.8164,1.3984,11.4064,4.1896   C121.4009,110.0948,122.8889,116.282,120.7797,126.4344z" fill="#FE7D71"/><path d="M136.0825,43.7607l-6.4884-13.2247c-5.1056-10.42-14.5-16.7012-25.1268-16.8048c-0.088,0-0.176,0-0.2656,0   c-10.7072,0-20.2912,6.2268-25.678,16.7012c-1.5212,2.9592-3.0876,5.8948-4.654,8.8304   c-2.6272,4.9236-5.344,10.0156-7.8264,15.1852C48.7018,90.5632,32.721,124.0984,17.1878,156.9736   c-4.822,10.1991-5,20.9492-0.5116,31.082c4.2616,9.6211,11.8828,16.8084,21.4592,20.2384c3.9548,1.418,8.07,2.1208,12.2128,2.1208   c5.8944,0,11.8435-1.4256,17.4491-4.2461c6.9608-3.504,12.9668-8.4335,18.7732-13.1991c2.4748-2.0312,4.9476-4.0624,7.4828-5.9649   c5.4276-4.0663,6.1308-9.3047,1.994-15.7227c-6.5568-10.1756-13.338-20.6992-18.588-31.5508   c-4.92-10.164-5.9608-20.3708-3.0976-30.3416c4.4708-15.5644,21.1916-24.4628,38.082-20.2424   c15.7852,3.9375,25.3713,19.7384,22.2948,36.756c-2.1852,12.1095-7.4744,23.8752-17.1464,38.1444   c-0.6051,0.8948-1.334,1.8204-2.0664,2.762c-3.0176,3.8708-6.4376,8.2576-5.6092,13.4532l0.002,0.0116   c0.8652,5.3516,5.3708,8.914,9.3456,12.0548c0.8048,0.6328,1.5956,1.2576,2.3164,1.8748   c9.584,8.2072,20.506,15.832,35.3848,16.0272l0.4432,0.004l0.4416-0.0585c0.8729-0.1171,1.754-0.2031,2.6369-0.2891   c2.1871-0.2149,4.6659-0.4608,7.1463-1.1564c10.6817-2.9844,19.3728-10.2928,23.8476-20.0468   c4.5196-9.8477,4.3632-20.918-0.4396-31.1757C173.1781,119.3564,154.3205,80.9268,136.0825,43.7607z M180.5745,183.6804   c-3.002,6.5432-8.8964,11.4612-16.1755,13.4963c-1.4689,0.4101-3.2269,0.5861-5.088,0.7657   c-0.8693,0.086-1.7365,0.1716-2.5977,0.2812c-10.25-0.2656-18.3516-5.4492-27.326-13.1328c-0.834-0.7148-1.75-1.4416-2.6836-2.1796   c-1.4416-1.1368-4.004-3.1644-4.7832-4.336c0.5136-1.1096,2.0836-3.1252,3.068-4.3908c0.9044-1.156,1.7912-2.3048,2.5372-3.4024   c7.174-10.5856,15.8204-25.0116,19.0216-42.746c4.2148-23.3204-9.1972-45.0448-31.1992-50.5332   c-23.1816-5.7908-46.254,6.7616-52.5216,28.5744c-3.6503,12.7168-2.326,26.162,3.832,38.8808   c5.5685,11.5076,12.5488,22.3436,19.4005,32.9764c0.0099,0.0156,0.0215,0.0312,0.0311,0.0468   c-2.41,1.84-4.7711,3.7736-7.1308,5.7112c-5.5468,4.5508-10.7852,8.8516-16.5584,11.7576   c-6.5819,3.3128-13.7635,3.8632-20.2207,1.5467c-6.4532-2.3083-11.6132-7.2107-14.5312-13.8003   c-3.0764-6.9456-2.9452-14.0432,0.3884-21.098C43.559,129.2508,59.5298,95.7352,76.8597,59.6416   c2.3732-4.9396,5.0292-9.916,7.5976-14.7304c1.594-2.9884,3.1897-5.9788,4.7384-8.9905   c3.2852-6.3907,8.8908-10.1895,15.0136-10.1895c0.0488,0,0.0956,0,0.1428,0c6.082,0.0588,11.3552,3.7344,14.4684,10.088   l6.4905,13.2268c18.2127,37.1187,37.0467,75.498,54.8631,113.5488C183.4553,169.6064,183.5981,177.0948,180.5745,183.6804z" fill="#FE7D71"/></g></svg>